<svg xmlns="http://www.w3.org/2000/svg" width="20" height="35" viewBox="0 0 20 35" fill="none">
  <g clip-path="url(#clip0_2_5)">
    <path d="M11.4286 13.6112H20L19.0477 17.5H11.4286V35H7.61905V17.5H0V13.6112H7.61905V9.97111C7.61905 6.50418 7.97334 5.24611 8.6362 3.97834C9.28574 2.72574 10.2892 1.70141 11.5162 1.03833C12.7581 0.361667 13.9905 0 17.3866 0C18.381 0 19.2533 0.0972224 20 0.291667V3.88889H17.3866C14.8648 3.88889 14.0972 4.04056 13.3124 4.46834C12.7491 4.76876 12.2896 5.23843 11.9962 5.81389C11.5772 6.61306 11.4286 7.39667 11.4286 9.97111V13.6112Z" fill="#E1E1E1"/>
  </g>
  <defs>
    <clipPath id="clip0_2_5">
      <rect width="20" height="35" fill="white"/>
    </clipPath>
  </defs>
</svg>