<svg xmlns="http://www.w3.org/2000/svg" width="35" height="35" viewBox="0 0 35 35" fill="none">
  <g clip-path="url(#clip0_2_7)">
    <path d="M2.12122 24.671V10.7942C2.12122 8.49398 3.03497 6.28798 4.66147 4.66147C6.28798 3.03498 8.49398 2.12122 10.7942 2.12122H24.671C26.9712 2.12122 29.1772 3.03498 30.8037 4.66147C32.4302 6.28798 33.344 8.49398 33.344 10.7942V24.671C33.344 26.9712 32.4302 29.1773 30.8037 30.8037C29.1772 32.4303 26.9712 33.344 24.671 33.344H10.7942C8.49398 33.344 6.28798 32.4303 4.66147 30.8037C3.03497 29.1773 2.12122 26.9712 2.12122 24.671Z" stroke="#D3D3D3" stroke-width="2.5"/>
    <path d="M17.0219 24.7941C18.8621 24.7941 20.6269 24.063 21.9281 22.7619C23.2293 21.4607 23.9603 19.6959 23.9603 17.8557C23.9603 16.0155 23.2293 14.2507 21.9281 12.9495C20.6269 11.6483 18.8621 10.9173 17.0219 10.9173C15.1817 10.9173 13.417 11.6483 12.1157 12.9495C10.8146 14.2507 10.0835 16.0155 10.0835 17.8557C10.0835 19.6959 10.8146 21.4607 12.1157 22.7619C13.417 24.063 15.1817 24.7941 17.0219 24.7941Z" stroke="#D3D3D3" stroke-width="2.5" stroke-linecap="round" stroke-linejoin="round"/>
    <path d="M26.5623 8.33303L26.5797 8.31395" stroke="#D3D3D3" stroke-width="2.5" stroke-linecap="round" stroke-linejoin="round"/>
  </g>
  <defs>
    <clipPath id="clip0_2_7">
      <rect width="35" height="35" fill="white"/>
    </clipPath>
  </defs>
</svg>