<svg xmlns="http://www.w3.org/2000/svg" width="48" height="36" viewBox="0 0 48 36" fill="none">
<g clip-path="url(#clip0_2_2)">
<path d="M2.42737 19.9146V16.7565C2.42737 10.2996 2.42737 7.07 4.37641 4.99354C6.3276 2.91485 9.39868 2.82563 15.5387 2.64497C18.4461 2.56022 21.4181 2.5 23.9637 2.5C26.5072 2.5 29.4792 2.56022 32.3887 2.64497C38.5287 2.82563 41.5998 2.91485 43.5489 4.99354C45.5001 7.07 45.5001 10.3018 45.5001 16.7565V19.9124C45.5001 26.3715 45.5001 29.5989 43.551 31.6775C41.5998 33.754 38.5309 33.8455 32.3887 34.0239C29.4813 34.1109 26.5093 34.1711 23.9637 34.1711C21.1549 34.1624 18.3462 34.1133 15.5387 34.0239C9.39868 33.8455 6.3276 33.7562 4.37641 31.6775C2.42737 29.5989 2.42737 26.3693 2.42737 19.9146Z" stroke="#D3D3D3" stroke-width="2.5"/>
<path d="M27.8173 18.7228L20.4274 22.9456V14.5L27.8173 18.7228Z" stroke="#D3D3D3" stroke-width="2.5" stroke-linecap="round" stroke-linejoin="round"/>
</g>
<defs>
<clipPath id="clip0_2_2">
<rect width="47" height="35" fill="white" transform="translate(0.5 0.5)"/>
</clipPath>
</defs>
</svg>